<?xml version="1.0" encoding="utf-8"?>
<!-- Generator: Adobe Illustrator 24.1.0, SVG Export Plug-In . SVG Version: 6.00 Build 0)  -->
<svg version="1.1" id="Livello_1" xmlns="http://www.w3.org/2000/svg" xmlns:xlink="http://www.w3.org/1999/xlink" x="0px" y="0px"
	 viewBox="0 0 500 500" style="enable-background:new 0 0 500 500;" xml:space="preserve">
<style type="text/css">
	.st0{fill:#1D1D1B;}
</style>
<g>
	<path class="st0" d="M375.25,72.08h69.83v9.29h-59.81v37.51h52.5v9.29h-52.5v47.24h-10.02V72.08z"/>
</g>
<g>
	<path class="st0" d="M36.45,247.55c0-30.64,15.94-52.72,47.38-52.72c20.47,0,34.51,9.51,42.12,27.93l-9.43,3.8
		c-5.19-15.43-16.16-22.08-32.76-22.08c-24.93,0-37.36,16.96-37.36,42.7c0,24.64,10.97,43.73,36.85,43.73
		c16.23,0,26.98-6.95,33.49-22.37l9.36,3.8c-8.12,18.43-22.67,28.15-42.85,28.15C52.39,300.49,36.45,278.19,36.45,247.55z"/>
</g>
<g>
	<path class="st0" d="M231.94,396.27l9.94-2.49c2.05,14.33,12.43,21.86,26.25,21.86c13.97,0,23.03-8.34,23.03-19.52
		c0-27.13-53.09-18.28-53.09-50.53c0-16.09,13.02-26.32,29.25-26.32c12.65,0,22.67,5.05,29.25,16.6l-8.34,5.19
		c-4.75-8.63-11.7-12.87-21.28-12.87c-10.75,0-18.86,7.17-18.86,16.96c0,24.57,53.09,16.09,53.09,50.16
		c0,17.7-14.48,29.32-33.2,29.32C250.14,424.64,235.01,414.62,231.94,396.27z"/>
</g>
</svg>
